# Blender 4.1.1
# www.blender.org
mtllib altustdeneme.mtl
o Gen_const_barricade_04_LOD2
v 0.132715 -0.011883 0.061349
v 0.310589 -0.011883 0.061349
v 0.132715 0.001246 0.061349
v 0.310589 0.001246 0.061349
v 0.132715 0.001246 0.058258
v 0.310589 0.001246 0.058258
v 0.132715 -0.011883 0.058258
v 0.310589 -0.011883 0.058258
v 0.289833 0.020598 0.060558
v 0.294253 0.020598 0.060558
v 0.289833 0.020429 0.059374
v 0.294253 0.020429 0.059374
v 0.294253 -0.068412 0.075258
v 0.289833 -0.068412 0.075258
v 0.289833 -0.068432 0.073940
v 0.294253 -0.068432 0.073940
v 0.294469 0.020898 0.058801
v 0.288242 0.020898 0.058801
v 0.289541 0.020428 0.059373
v 0.288242 0.018949 0.061174
v 0.288242 -0.068412 0.044098
v 0.294469 -0.068412 0.044098
v 0.289541 -0.068422 0.044781
v 0.288242 -0.068452 0.046776
v 0.289541 -0.068452 0.046776
v 0.289541 0.018949 0.061174
v 0.294469 -0.068421 0.044743
v 0.294469 0.020428 0.059373
v 0.294253 -0.049644 0.072167
v 0.289833 -0.049644 0.072167
v 0.289833 -0.049820 0.070872
v 0.294253 -0.049820 0.070872
v 0.294253 -0.053900 0.072868
v 0.289833 -0.053900 0.072868
v 0.289833 -0.054041 0.071567
v 0.294253 -0.054041 0.071567
v 0.289541 -0.049798 0.047834
v 0.294469 -0.049798 0.047810
v 0.294469 -0.054018 0.047115
v 0.289541 -0.054018 0.047142
v 0.294253 -0.011918 0.064643
v 0.289833 -0.011918 0.064643
v 0.289833 -0.011564 0.065887
v 0.294253 -0.011564 0.065887
v 0.294253 -0.017890 0.065615
v 0.289833 -0.017890 0.065615
v 0.289833 -0.017502 0.066870
v 0.294253 -0.017502 0.066870
v 0.294469 -0.011905 0.054051
v 0.289541 -0.011905 0.054051
v 0.294469 -0.017875 0.053069
v 0.289541 -0.017875 0.053069
v 0.288242 -0.011717 0.053433
v 0.294469 -0.011717 0.053433
v 0.289541 -0.012498 0.055998
v 0.288242 -0.012498 0.055998
v 0.288242 -0.017738 0.052443
v 0.294469 -0.017738 0.052443
v 0.289541 -0.018304 0.055043
v 0.288242 -0.018304 0.055043
v 0.288242 -0.053980 0.046475
v 0.294469 -0.053980 0.046475
v 0.289541 -0.054140 0.049136
v 0.288242 -0.054140 0.049136
v 0.288242 -0.049751 0.047170
v 0.288242 -0.049947 0.049827
v 0.289541 -0.049947 0.049827
v 0.294469 -0.049751 0.047170
v 0.153472 0.020598 0.060558
v 0.149051 0.020598 0.060558
v 0.153472 0.020429 0.059374
v 0.149051 0.020429 0.059374
v 0.149051 -0.068412 0.075258
v 0.153472 -0.068412 0.075258
v 0.153472 -0.068432 0.073940
v 0.149051 -0.068432 0.073940
v 0.148835 0.020898 0.058801
v 0.155062 0.020898 0.058801
v 0.153764 0.020428 0.059373
v 0.155062 0.018949 0.061174
v 0.155062 -0.068412 0.044098
v 0.148835 -0.068412 0.044098
v 0.153764 -0.068422 0.044781
v 0.155062 -0.068452 0.046776
v 0.153764 -0.068452 0.046776
v 0.153764 0.018949 0.061174
v 0.148835 -0.068421 0.044743
v 0.148835 0.020428 0.059373
v 0.149051 -0.049644 0.072167
v 0.153472 -0.049644 0.072167
v 0.153472 -0.049820 0.070872
v 0.149051 -0.049820 0.070872
v 0.149051 -0.053900 0.072868
v 0.153472 -0.053900 0.072868
v 0.153472 -0.054041 0.071567
v 0.149051 -0.054041 0.071567
v 0.153764 -0.049798 0.047834
v 0.148835 -0.049798 0.047810
v 0.148835 -0.054018 0.047115
v 0.153764 -0.054018 0.047142
v 0.149051 -0.011918 0.064643
v 0.153472 -0.011918 0.064643
v 0.153472 -0.011564 0.065887
v 0.149051 -0.011564 0.065887
v 0.149051 -0.017890 0.065615
v 0.153472 -0.017890 0.065615
v 0.153472 -0.017502 0.066870
v 0.149051 -0.017502 0.066870
v 0.148835 -0.011905 0.054051
v 0.153764 -0.011905 0.054051
v 0.148835 -0.017875 0.053069
v 0.153764 -0.017875 0.053069
v 0.155062 -0.011717 0.053433
v 0.148835 -0.011717 0.053433
v 0.153764 -0.012498 0.055998
v 0.155062 -0.012498 0.055998
v 0.155062 -0.017738 0.052443
v 0.148835 -0.017738 0.052443
v 0.153764 -0.018304 0.055043
v 0.155062 -0.018304 0.055043
v 0.155062 -0.053980 0.046475
v 0.148835 -0.053980 0.046475
v 0.153764 -0.054140 0.049136
v 0.155062 -0.054140 0.049136
v 0.155062 -0.049751 0.047170
v 0.155062 -0.049947 0.049827
v 0.153764 -0.049947 0.049827
v 0.148835 -0.049751 0.047170
vn -0.0000 -0.0000 1.0000
vn -0.0000 1.0000 -0.0000
vn -0.0000 -0.0000 -1.0000
vn -0.0000 -1.0000 -0.0000
vn 1.0000 -0.0000 -0.0000
vn -1.0000 -0.0000 -0.0000
vn -0.9999 -0.0000 0.0158
vn 0.9999 -0.0000 0.0116
vn -1.0000 -0.0000 0.0097
vn 1.0000 -0.0000 0.0072
vn -0.0000 -0.1627 -0.9867
vn -0.0000 -0.1608 -0.9870
vn -0.0000 0.9900 -0.1413
vn -0.0000 0.1634 0.9866
vn -0.0000 0.1635 0.9865
vn -0.0000 0.1625 0.9867
vn -0.0000 0.7726 0.6348
vn -0.0000 0.7727 0.6347
vn -0.0000 0.7727 0.6348
vn -0.0000 0.1623 -0.9867
vn -0.0000 0.1624 -0.9867
vn 0.1580 -0.1602 0.9744
vn 0.1540 -0.1602 0.9750
vn 0.8463 -0.0866 0.5256
vn 0.8503 -0.0856 0.5193
vn 0.8281 -0.0912 0.5531
vn 0.8585 -0.0834 0.5060
vn 0.1467 -0.1604 0.9761
vn 0.1656 -0.1583 0.9734
vn -0.0000 0.1625 -0.9867
vn -0.0000 -0.1627 0.9867
vn -0.0000 -0.1625 0.9867
vn -0.0000 -0.1626 0.9867
vn -0.0004 0.7727 0.6348
vn 0.0024 -0.1622 0.9868
vn 0.0065 -0.1621 0.9867
vn -0.0000 0.1626 0.9867
vn -1.0000 -0.0000 0.0085
vn 1.0000 -0.0000 0.0063
vn -0.0000 1.0000 0.0010
vn 1.0000 -0.0000 0.0091
vn -0.0000 -1.0000 -0.0009
vn -0.9999 -0.0000 0.0123
vn -0.9999 -0.0000 0.0135
vn -0.0000 0.1630 0.9866
vn 1.0000 -0.0000 0.0100
vn -0.0000 -0.1625 -0.9867
vn -0.0000 1.0000 0.0012
vn 0.9998 -0.0000 0.0187
vn -0.0000 -1.0000 -0.0012
vn -0.9997 -0.0000 0.0252
vn 0.1440 -0.1607 0.9764
vn 0.1714 -0.1600 0.9721
vn -0.0000 -0.1624 0.9867
vn 0.8293 -0.0907 0.5514
vn 0.9030 -0.0698 0.4239
vn 0.9999 -0.0000 0.0157
vn -0.9999 -0.0000 0.0116
vn 1.0000 -0.0000 0.0097
vn -1.0000 -0.0000 0.0072
vn -0.0000 0.9899 -0.1416
vn -0.0000 0.7731 0.6343
vn -0.1540 -0.1588 0.9752
vn -0.1580 -0.1602 0.9744
vn -0.8503 -0.0856 0.5193
vn -0.8463 -0.0866 0.5256
vn -0.8585 -0.0833 0.5060
vn -0.8281 -0.0912 0.5531
vn -0.1467 -0.1594 0.9763
vn -0.1656 -0.1600 0.9731
vn 0.0002 0.7727 0.6348
vn -0.0024 -0.1622 0.9868
vn -0.0060 -0.1621 0.9868
vn -0.0065 -0.1621 0.9867
vn 1.0000 -0.0000 0.0085
vn -1.0000 -0.0000 0.0063
vn -1.0000 -0.0000 0.0091
vn 0.9999 -0.0000 0.0123
vn 0.9999 -0.0000 0.0135
vn -1.0000 -0.0000 0.0100
vn -0.9998 -0.0000 0.0187
vn 0.9997 -0.0000 0.0252
vn -0.1440 -0.1607 0.9764
vn -0.1714 -0.1600 0.9721
vn -0.8293 -0.0907 0.5514
vn -0.9030 -0.0698 0.4239
vt 0.686484 0.977906
vt 0.686484 0.021459
vt 0.821468 0.021459
vt 0.821468 0.977906
vt 0.853243 0.021459
vt 0.853243 0.977906
vt 0.988227 0.021459
vt 0.988228 0.977906
vt 0.654709 0.977906
vt 0.654709 0.021459
vt 0.686484 0.004840
vt 0.821468 0.004840
vt 0.686484 0.994525
vt 0.821468 0.994525
vt 0.350988 0.635849
vt 0.376739 0.635849
vt 0.376739 0.994777
vt 0.350988 0.994777
vt 0.280914 0.635849
vt 0.306700 0.635849
vt 0.306656 0.994777
vt 0.280914 0.994777
vt 0.350988 0.002923
vt 0.376739 0.002923
vt 0.376739 0.164407
vt 0.350988 0.164407
vt 0.280914 0.002923
vt 0.306714 0.002923
vt 0.306714 0.164407
vt 0.280914 0.164407
vt 0.504597 0.929086
vt 0.458329 0.929086
vt 0.458389 0.904732
vt 0.504597 0.904732
vt 0.420854 0.635849
vt 0.420854 0.994777
vt 0.420854 0.002923
vt 0.420854 0.164407
vt 0.452984 0.954541
vt 0.517610 0.954541
vt 0.504135 0.962081
vt 0.452981 0.962083
vt 0.239486 0.210582
vt 0.239486 0.569579
vt 0.177468 0.569579
vt 0.177479 0.210582
vt 0.164974 0.569579
vt 0.164974 0.210582
vt 0.115913 0.210582
vt 0.115967 0.569579
vt 0.077228 0.569579
vt 0.077228 0.210582
vt 0.064242 0.210582
vt 0.064242 0.569579
vt 0.013006 0.569579
vt 0.013006 0.210582
vt 0.115867 0.002923
vt 0.115903 0.163526
vt 0.077228 0.163526
vt 0.077229 0.002923
vt 0.164974 0.002923
vt 0.177487 0.002923
vt 0.177481 0.163526
vt 0.164974 0.163526
vt 0.239486 0.002923
vt 0.239486 0.163526
vt 0.064242 0.002923
vt 0.064242 0.163526
vt 0.013006 0.163526
vt 0.013006 0.002923
vt 0.517647 0.985851
vt 0.504102 0.985851
vt 0.420854 0.211772
vt 0.376739 0.211772
vt 0.350988 0.211772
vt 0.306714 0.211772
vt 0.280914 0.211772
vt 0.616690 0.867081
vt 0.572513 0.866624
vt 0.572513 0.636139
vt 0.616690 0.636875
vt 0.530329 0.873578
vt 0.530329 0.629192
vt 0.486151 0.873927
vt 0.486151 0.629192
vt 0.439267 0.867772
vt 0.439267 0.637551
vt 0.350988 0.569579
vt 0.376739 0.569579
vt 0.420854 0.569579
vt 0.280914 0.569579
vt 0.306709 0.569579
vt 0.467212 0.494906
vt 0.467213 0.445659
vt 0.574028 0.445659
vt 0.574028 0.494906
vt 0.454499 0.385843
vt 0.583841 0.385999
vt 0.454499 0.604115
vt 0.454499 0.554985
vt 0.583841 0.554985
vt 0.583841 0.604115
vt 0.177471 0.635849
vt 0.239487 0.635849
vt 0.239489 0.997752
vt 0.177486 0.997752
vt 0.164974 0.635849
vt 0.164974 0.993677
vt 0.115944 0.635849
vt 0.115817 0.993676
vt 0.077229 0.635849
vt 0.077228 0.980822
vt 0.064242 0.980818
vt 0.064242 0.635849
vt 0.013006 0.635849
vt 0.013006 0.997752
s 1
usemtl lambert10.001
f 1/1/1 2/2/1 4/3/1 3/4/1
f 3/4/2 4/3/2 6/5/2 5/6/2
f 5/6/3 6/5/3 8/7/3 7/8/3
f 7/9/4 8/10/4 2/2/4 1/1/4
f 2/2/5 8/11/5 6/12/5 4/3/5
f 7/13/6 1/1/6 3/4/6 5/14/6
f 42/15/7 43/16/6 9/17/6 11/18/6
f 44/19/5 41/20/8 12/21/5 10/22/5
f 15/23/6 14/24/6 34/25/6 35/26/9
f 13/27/5 16/28/5 36/29/10 33/30/5
f 35/26/11 36/29/11 16/28/11 15/23/11
f 11/18/12 12/21/12 41/20/12 42/15/12
f 9/31/13 10/32/13 12/33/13 11/34/13
f 43/16/14 44/35/14 10/36/15 9/17/15
f 14/24/16 13/37/16 33/38/16 34/25/16
f 17/39/17 18/40/18 19/41/19 28/42/17
f 65/43/20 57/44/21 58/45/21 68/46/20
f 58/45/5 51/47/22 38/48/23 68/46/5
f 37/49/5 52/50/5 59/51/24 67/52/25
f 66/53/6 60/54/6 57/55/6 65/56/6
f 23/57/5 40/58/5 63/59/26 25/60/27
f 27/61/28 22/62/5 62/63/5 39/64/29
f 22/62/30 21/65/30 61/66/20 62/63/20
f 24/67/6 64/68/6 61/69/6 21/70/6
f 63/59/26 64/68/31 24/67/31 25/60/27
f 59/51/24 60/54/32 66/53/33 67/52/25
f 18/40/18 20/71/34 26/72/34 19/41/19
f 51/47/22 52/50/35 37/49/35 38/48/23
f 23/57/36 27/61/28 39/64/29 40/58/36
f 34/25/16 33/38/16 29/73/37 30/74/37
f 34/25/6 30/74/6 31/75/38 35/26/9
f 33/30/5 36/29/10 32/76/39 29/77/5
f 31/78/40 32/79/40 38/80/40 37/81/40
f 32/79/39 36/82/10 39/83/41 38/80/41
f 36/82/42 35/84/42 40/85/42 39/83/42
f 35/84/9 31/86/38 37/87/43 40/85/43
f 46/88/44 47/89/6 43/16/6 42/15/7
f 47/89/45 48/90/45 44/35/14 43/16/14
f 48/91/5 45/92/46 41/20/8 44/19/5
f 31/75/47 46/88/47 45/92/47 32/76/47
f 47/89/6 46/88/44 31/75/38 30/74/6
f 48/90/45 47/89/45 30/74/37 29/73/37
f 32/76/39 45/92/46 48/91/5 29/77/5
f 42/93/48 41/94/48 49/95/48 50/96/48
f 41/94/8 45/97/46 51/98/49 49/95/49
f 45/99/50 46/100/50 52/101/50 51/102/50
f 46/100/44 42/93/7 50/96/51 52/101/51
f 54/103/20 53/104/20 18/105/21 17/106/21
f 49/107/52 54/103/5 17/106/5 28/108/53
f 50/109/54 49/107/52 28/108/53 19/110/54
f 55/111/55 50/109/5 19/110/5 26/112/56
f 26/112/56 20/113/54 56/114/54 55/111/55
f 53/115/6 56/114/6 20/113/6 18/116/6
f 58/45/21 57/44/21 53/104/20 54/103/20
f 51/47/22 58/45/5 54/103/5 49/107/52
f 59/51/24 52/50/5 50/109/5 55/111/55
f 55/111/55 56/114/54 60/54/32 59/51/24
f 57/55/6 60/54/6 56/114/6 53/115/6
f 65/56/6 61/69/6 64/68/6 66/53/6
f 67/52/25 66/53/33 64/68/31 63/59/26
f 37/49/5 67/52/25 63/59/26 40/58/5
f 68/46/5 38/48/23 39/64/29 62/63/5
f 65/43/20 68/46/20 62/63/20 61/66/20
f 102/15/57 71/18/5 69/17/5 103/16/5
f 104/19/6 70/22/6 72/21/6 101/20/58
f 75/23/5 95/26/59 94/25/5 74/24/5
f 73/27/6 93/30/6 96/29/60 76/28/6
f 95/26/11 75/23/11 76/28/11 96/29/11
f 71/18/12 102/15/12 101/20/12 72/21/12
f 69/31/61 71/34/61 72/33/61 70/32/61
f 103/16/14 69/17/15 70/36/15 104/35/14
f 74/24/16 94/25/16 93/38/16 73/37/16
f 77/39/62 88/42/62 79/41/19 78/40/18
f 125/43/20 128/46/20 118/45/21 117/44/21
f 118/45/6 128/46/6 98/48/63 111/47/64
f 97/49/6 127/52/65 119/51/66 112/50/6
f 126/53/5 125/56/5 117/55/5 120/54/5
f 83/57/6 85/60/67 123/59/68 100/58/6
f 87/61/69 99/64/70 122/63/6 82/62/6
f 82/62/30 122/63/20 121/66/20 81/65/30
f 84/67/5 81/70/5 121/69/5 124/68/5
f 123/59/68 85/60/67 84/67/31 124/68/31
f 119/51/66 127/52/65 126/53/33 120/54/32
f 78/40/18 79/41/19 86/72/71 80/71/71
f 111/47/64 98/48/63 97/49/72 112/50/72
f 83/57/73 100/58/74 99/64/70 87/61/69
f 94/25/16 90/74/37 89/73/37 93/38/16
f 94/25/5 95/26/59 91/75/75 90/74/5
f 93/30/6 89/77/6 92/76/76 96/29/60
f 91/78/40 97/81/40 98/80/40 92/79/40
f 92/79/76 98/80/77 99/83/77 96/82/60
f 96/82/42 99/83/42 100/85/42 95/84/42
f 95/84/59 100/85/78 97/87/78 91/86/75
f 106/88/79 102/15/57 103/16/5 107/89/5
f 107/89/45 103/16/14 104/35/14 108/90/45
f 108/91/6 104/19/6 101/20/58 105/92/80
f 91/75/47 92/76/47 105/92/47 106/88/47
f 107/89/5 90/74/5 91/75/75 106/88/79
f 108/90/45 89/73/37 90/74/37 107/89/45
f 92/76/76 89/77/6 108/91/6 105/92/80
f 102/93/48 110/96/48 109/95/48 101/94/48
f 101/94/58 109/95/81 111/98/81 105/97/80
f 105/99/50 111/102/50 112/101/50 106/100/50
f 106/100/79 112/101/82 110/96/82 102/93/57
f 114/103/20 77/106/21 78/105/21 113/104/20
f 109/107/83 88/108/84 77/106/6 114/103/6
f 110/109/54 79/110/54 88/108/84 109/107/83
f 115/111/85 86/112/86 79/110/6 110/109/6
f 86/112/86 115/111/85 116/114/54 80/113/54
f 113/115/5 78/116/5 80/113/5 116/114/5
f 118/45/21 114/103/20 113/104/20 117/44/21
f 111/47/64 109/107/83 114/103/6 118/45/6
f 119/51/66 115/111/85 110/109/6 112/50/6
f 115/111/85 119/51/66 120/54/32 116/114/54
f 117/55/5 113/115/5 116/114/5 120/54/5
f 125/56/5 126/53/5 124/68/5 121/69/5
f 127/52/65 123/59/68 124/68/31 126/53/33
f 97/49/6 100/58/6 123/59/68 127/52/65
f 128/46/6 122/63/6 99/64/70 98/48/63
f 125/43/20 121/66/20 122/63/20 128/46/20
